<?xml version="1.0" encoding="UTF-8"?>
<svg xmlns="http://www.w3.org/2000/svg" width="940" height="560" viewBox="0 0 940 560" role="img"><rect width="940" height="560" fill="#0f172a"/>
<text x="20" y="26" fill="#f8fafc" font-size="15" font-weight="600" font-family='Fira Code, ui-monospace, monospace'>Grafo de procedencia anotado</text>
<text x="20" y="44" fill="#94a3b8" font-size="11" font-family='Fira Code, ui-monospace, monospace'>run attack_code_injection_0 · snapshot final · 20 nodos · 22 aristas · 2 anómalos</text>
<line x1="490.473" y1="310.141" x2="415.571" y2="267.935" stroke="#7dd3fc" stroke-opacity="0.65" stroke-width="1.4"/>
<line x1="498.877" y1="318.609" x2="545.563" y2="402.95" stroke="#7dd3fc" stroke-opacity="0.65" stroke-width="1.4"/>
<line x1="498.969" y1="307.812" x2="553.594" y2="212.98" stroke="#7dd3fc" stroke-opacity="0.65" stroke-width="1.4"/>
<line x1="491.562" y1="317.639" x2="424.222" y2="387.204" stroke="#7dd3fc" stroke-opacity="0.65" stroke-width="1.4"/>
<line x1="501.934" y1="311.875" x2="546.872" y2="302.162" stroke="#7dd3fc" stroke-opacity="0.65" stroke-width="1.4"/>
<line x1="561.965" y1="193.123" x2="577.484" y2="138.177" stroke="#4ade80" stroke-opacity="0.65" stroke-width="1.4"/>
<line x1="412.258" y1="403.504" x2="381.11" y2="460.902" stroke="#7dd3fc" stroke-opacity="0.65" stroke-width="1.4"/>
<line x1="385.283" y1="475.155" x2="405.03" y2="486.044" stroke="#4ade80" stroke-opacity="0.65" stroke-width="1.4"/>
<line x1="561.644" y1="415.623" x2="630.73" y2="434.711" stroke="#7dd3fc" stroke-opacity="0.65" stroke-width="1.4"/>
<line x1="651.071" y1="438.811" x2="702.052" y2="445.382" stroke="#4ade80" stroke-opacity="0.65" stroke-width="1.4"/>
<line x1="544.065" y1="421.385" x2="501.547" y2="475.299" stroke="#7dd3fc" stroke-opacity="0.65" stroke-width="1.4"/>
<line x1="484.724" y1="484.29" x2="420.371" y2="489.357" stroke="#4ade80" stroke-opacity="0.65" stroke-width="1.4"/>
<line x1="567.094" y1="196.319" x2="618.282" y2="150.377" stroke="#7dd3fc" stroke-opacity="0.65" stroke-width="1.4"/>
<line x1="616.714" y1="142.378" x2="588.784" y2="132.358" stroke="#4ade80" stroke-opacity="0.65" stroke-width="1.4"/>
<line x1="631.334" y1="141.544" x2="669.409" y2="122.753" stroke="#818cf8" stroke-opacity="0.65" stroke-width="1.4"/>
<line x1="408.097" y1="399.291" x2="365.204" y2="421.884" stroke="#7dd3fc" stroke-opacity="0.65" stroke-width="1.4"/>
<line x1="362.9" y1="434.582" x2="406.758" y2="483.879" stroke="#4ade80" stroke-opacity="0.65" stroke-width="1.4"/>
<line x1="397.082" y1="258.838" x2="333.124" y2="231.694" stroke="#7dd3fc" stroke-opacity="0.65" stroke-width="1.4"/>
<line x1="310.291" y1="223.154" x2="259.329" y2="206.581" stroke="#7dd3fc" stroke-opacity="0.65" stroke-width="1.4"/>
<line x1="248.169" y1="212.628" x2="230.84" y2="276.916" stroke="#facc15" stroke-opacity="0.65" stroke-width="1.4"/>
<line x1="253.814" y1="195.108" x2="277.911" y2="131.099" stroke="#7dd3fc" stroke-opacity="0.65" stroke-width="1.4"/>
<line x1="284.573" y1="120.001" x2="323.478" y2="75.748" stroke="#818cf8" stroke-opacity="0.65" stroke-width="1.4"/>
<circle cx="406.581" cy="262.869" r="7.11924" fill="#22d3ee" opacity="0.92"/>
<text x="406.581" y="281.989" fill="#94a3b8" font-size="9" text-anchor="middle" font-family='Fira Code, ui-monospace, monospace'>pid 100</text>
<circle cx="495.874" cy="313.184" r="3" fill="#22d3ee" opacity="0.92"/>
<text x="495.874" y="328.184" fill="#94a3b8" font-size="9" text-anchor="middle" font-family='Fira Code, ui-monospace, monospace'>pid 1</text>
<circle cx="550.941" cy="412.665" r="7.90436" fill="#22d3ee" opacity="0.92"/>
<text x="550.941" y="432.57" fill="#94a3b8" font-size="9" text-anchor="middle" font-family='Fira Code, ui-monospace, monospace'>pid 101</text>
<circle cx="559.014" cy="203.572" r="7.65754" fill="#22d3ee" opacity="0.92"/>
<text x="559.014" y="223.229" fill="#94a3b8" font-size="9" text-anchor="middle" font-family='Fira Code, ui-monospace, monospace'>pid 102</text>
<circle cx="417.125" cy="394.535" r="7.00371" fill="#22d3ee" opacity="0.92"/>
<text x="417.125" y="413.539" fill="#94a3b8" font-size="9" text-anchor="middle" font-family='Fira Code, ui-monospace, monospace'>pid 103</text>
<circle cx="558.1" cy="299.736" r="13.2867" fill="none" stroke="#f43f5e" stroke-opacity="0.55" stroke-width="1.5"/>
<circle cx="558.1" cy="299.736" r="8.28671" fill="#f43f5e" opacity="0.92"/>
<text x="558.1" y="320.023" fill="#f43f5e" font-size="9" text-anchor="middle" font-family='Fira Code, ui-monospace, monospace'>editor</text>
<rect x="574.818" y="125.238" width="10.3962" height="7.95004" rx="2" fill="#22d3ee" opacity="0.92"/>
<text x="580.016" y="147.328" fill="#94a3b8" font-size="9" text-anchor="middle" font-family='Fira Code, ui-monospace, monospace'>/etc/crontab</text>
<circle cx="376.118" cy="470.101" r="7.26638" fill="#22d3ee" opacity="0.92"/>
<text x="376.118" y="489.367" fill="#94a3b8" font-size="9" text-anchor="middle" font-family='Fira Code, ui-monospace, monospace'>sort</text>
<rect x="407.96" y="486.755" width="8.48716" height="6.49018" rx="2" fill="#22d3ee" opacity="0.92"/>
<text x="412.204" y="506.992" fill="#94a3b8" font-size="9" text-anchor="middle" font-family='Fira Code, ui-monospace, monospace'>/proc/stat</text>
<circle cx="640.755" cy="437.481" r="7.20098" fill="#22d3ee" opacity="0.92"/>
<text x="640.755" y="456.682" fill="#94a3b8" font-size="9" text-anchor="middle" font-family='Fira Code, ui-monospace, monospace'>cat</text>
<rect x="706.144" y="442.409" width="11.0106" height="8.41983" rx="2" fill="#22d3ee" opacity="0.92"/>
<text x="711.649" y="465.096" fill="#94a3b8" font-size="9" text-anchor="middle" font-family='Fira Code, ui-monospace, monospace'>/etc/passwd</text>
<circle cx="495.101" cy="483.473" r="7.20928" fill="#22d3ee" opacity="0.92"/>
<text x="495.101" y="502.682" fill="#94a3b8" font-size="9" text-anchor="middle" font-family='Fira Code, ui-monospace, monospace'>ps</text>
<circle cx="624.201" cy="145.064" r="4.75411" fill="#22d3ee" opacity="0.92"/>
<text x="624.201" y="161.818" fill="#94a3b8" font-size="9" text-anchor="middle" font-family='Fira Code, ui-monospace, monospace'>ls</text>
<path d="M677.2009135736222,111.22251767463817 L684.8855839503998,118.90718805141582 L677.2009135736222,126.59185842819346 L669.5162431968446,118.90718805141582 Z" fill="#22d3ee" opacity="0.92"/>
<text x="677.201" y="136.396" fill="#94a3b8" font-size="9" text-anchor="middle" font-family='Fira Code, ui-monospace, monospace'>8.8.8.8:53</text>
<circle cx="355.943" cy="426.762" r="7.26638" fill="#22d3ee" opacity="0.92"/>
<text x="355.943" y="446.028" fill="#94a3b8" font-size="9" text-anchor="middle" font-family='Fira Code, ui-monospace, monospace'>sleep</text>
<circle cx="321.893" cy="226.928" r="14" fill="none" stroke="#f43f5e" stroke-opacity="0.55" stroke-width="1.5"/>
<circle cx="321.893" cy="226.928" r="9" fill="#f43f5e" opacity="0.92"/>
<text x="321.893" y="247.928" fill="#f43f5e" font-size="9" text-anchor="middle" font-family='Fira Code, ui-monospace, monospace'>pid 110</text>
<circle cx="250.567" cy="203.731" r="6.01367" fill="#22d3ee" opacity="0.92"/>
<text x="250.567" y="221.745" fill="#94a3b8" font-size="9" text-anchor="middle" font-family='Fira Code, ui-monospace, monospace'>pid 111</text>
<rect x="222.939" y="282.015" width="10.8232" height="8.27654" rx="2" fill="#22d3ee" opacity="0.92"/>
<text x="228.351" y="304.519" fill="#94a3b8" font-size="9" text-anchor="middle" font-family='Fira Code, ui-monospace, monospace'>/tmp/.payload</text>
<circle cx="280.229" cy="124.942" r="3.37875" fill="#22d3ee" opacity="0.92"/>
<text x="280.229" y="140.32" fill="#94a3b8" font-size="9" text-anchor="middle" font-family='Fira Code, ui-monospace, monospace'>/tmp/.payload</text>
<path d="M328.5312217732345,63.7650145471096 L334.7662072261249,70.0 L328.5312217732345,76.2349854528904 L322.2962363203441,70.0 Z" fill="#22d3ee" opacity="0.92"/>
<text x="328.531" y="86.4536" fill="#94a3b8" font-size="9" text-anchor="middle" font-family='Fira Code, ui-monospace, monospace'>203.0.113.7:1337</text>
<text x="870" y="482" fill="#94a3b8" font-size="10" font-family='Fira Code, ui-monospace, monospace'>nodo</text>
<circle cx="808" cy="478" r="5" fill="#22d3ee"/>
<text x="870" y="500" fill="#94a3b8" font-size="10" font-family='Fira Code, ui-monospace, monospace'>anómalo</text>
<circle cx="808" cy="496" r="5" fill="#f43f5e" stroke="#f43f5e" stroke-width="2"/>
<text x="856" y="516" fill="#94a3b8" font-size="10" font-family='Fira Code, ui-monospace, monospace'>aristas</text>
<line x1="790" y1="534" x2="830" y2="534" stroke="#7dd3fc" stroke-opacity="0.8"/>
<text x="838" y="537" fill="#94a3b8" font-size="9" font-family='Fira Code, ui-monospace, monospace'>EXEC</text>
<line x1="790" y1="549" x2="830" y2="549" stroke="#4ade80" stroke-opacity="0.8"/>
<text x="838" y="552" fill="#94a3b8" font-size="9" font-family='Fira Code, ui-monospace, monospace'>READ</text>
<line x1="790" y1="564" x2="830" y2="564" stroke="#facc15" stroke-opacity="0.8"/>
<text x="838" y="567" fill="#94a3b8" font-size="9" font-family='Fira Code, ui-monospace, monospace'>WRITE</text>
<line x1="790" y1="579" x2="830" y2="579" stroke="#818cf8" stroke-opacity="0.8"/>
<text x="838" y="582" fill="#94a3b8" font-size="9" font-family='Fira Code, ui-monospace, monospace'>CONNECT</text>
<line x1="790" y1="594" x2="830" y2="594" stroke="#fb923c" stroke-opacity="0.8"/>
<text x="838" y="597" fill="#94a3b8" font-size="9" font-family='Fira Code, ui-monospace, monospace'>UNLINK</text>
<line x1="790" y1="609" x2="830" y2="609" stroke="#c084fc" stroke-opacity="0.8"/>
<text x="838" y="612" fill="#94a3b8" font-size="9" font-family='Fira Code, ui-monospace, monospace'>ACCEPT</text>
</svg>